<?xml version="1.0" encoding="utf-8"?>
<!-- Generator: Adobe Illustrator 18.1.1, SVG Export Plug-In . SVG Version: 6.00 Build 0)  -->
<svg version="1.1" xmlns="http://www.w3.org/2000/svg" xmlns:xlink="http://www.w3.org/1999/xlink" x="0px" y="0px"
	 viewBox="0 0 960 720" enable-background="new 0 0 960 720" xml:space="preserve">
<g id="Layer_1">
	<path fill="#E5E3E4" stroke="#000000" stroke-miterlimit="10" d="M1,258h771v-91l183,175c-61.7,63.3-123.3,126.7-185,190
		c0-32.7,0-65.3,0-98c-256.3,0-512.7,0-769,0V258z"/>
	<path d="M979,564"/>
</g>
<g id="Layer_2" display="none">
	<rect x="19" y="459.8" display="inline" fill="none" stroke="#000000" stroke-miterlimit="10" width="229.8" height="144.4"/>
</g>
<g id="Layer_4" display="none">
	<rect x="515.1" y="459.8" display="inline" fill="none" stroke="#000000" stroke-miterlimit="10" width="229.8" height="144.4"/>
</g>
<g id="Layer_5" display="none">
	
		<rect x="19" y="275" display="inline" fill="none" stroke="#FFFFFF" stroke-width="2" stroke-miterlimit="10" width="229.8" height="36.6"/>
</g>
<g id="Layer_7" display="none">
	
		<rect x="515.1" y="275" display="inline" fill="none" stroke="#FFFFFF" stroke-width="2" stroke-miterlimit="10" width="229.8" height="36.6"/>
</g>
<g id="Layer_3" display="none">
	<path display="inline" fill="#E5E3E4" stroke="#000000" stroke-miterlimit="10" d="M364.9,0c0,58.6,0,117.2,0,175.8
		c-10.8,0-21.7,0-32.5,0c19.8,21.1,39.7,42.2,59.5,63.2c18.6-21.4,37.2-42.8,55.8-64.2c-10.8,0-21.7,0-32.5,0
		c0-58.3,0-116.6,0-174.8C398.4,0,381.6,0,364.9,0z"/>
</g>
<g id="Layer_6" display="none">
	<ellipse display="inline" fill="#FFFFFF" stroke="#000000" stroke-miterlimit="10" cx="390" cy="347.5" rx="89.8" ry="87"/>
</g>
</svg>
