<?xml version="1.0" encoding="utf-8"?>
<!-- Generator: Adobe Illustrator 18.0.0, SVG Export Plug-In . SVG Version: 6.00 Build 0)  -->
<!DOCTYPE svg PUBLIC "-//W3C//DTD SVG 1.1//EN" "http://www.w3.org/Graphics/SVG/1.1/DTD/svg11.dtd">
<svg version="1.1" xmlns="http://www.w3.org/2000/svg" xmlns:xlink="http://www.w3.org/1999/xlink" x="0px" y="0px"
	 viewBox="0 0 219.5 327" enable-background="new 0 0 219.5 327" xml:space="preserve">
<g id="Layer_1">
	<g>
		<line fill="#BE1E2D" x1="77.6" y1="125" x2="74.3" y2="168.8"/>
		<line fill="none" stroke="#000000" stroke-miterlimit="10" x1="77.6" y1="125" x2="74.3" y2="168.8"/>
	</g>
	<g>
		<line fill="#BE1E2D" x1="74.3" y1="168.8" x2="101.5" y2="184.5"/>
		<line fill="none" stroke="#000000" stroke-miterlimit="10" x1="74.3" y1="168.8" x2="101.5" y2="184.5"/>
	</g>
	<g>
		<line fill="#BE1E2D" x1="77.6" y1="125" x2="107" y2="165.5"/>
		<line fill="none" stroke="#000000" stroke-miterlimit="10" x1="77.6" y1="125" x2="107" y2="165.5"/>
	</g>
	<g>
		<line fill="#BE1E2D" x1="107" y1="165.5" x2="101.5" y2="184.5"/>
		<line fill="none" stroke="#000000" stroke-miterlimit="10" x1="107" y1="165.5" x2="101.5" y2="184.5"/>
	</g>
	<g>
		<line fill="#BE1E2D" x1="92.3" y1="179.2" x2="65" y2="184.5"/>
		<line fill="none" stroke="#000000" stroke-miterlimit="10" x1="92.3" y1="179.2" x2="65" y2="184.5"/>
	</g>
	<g>
		<line fill="#BE1E2D" x1="65" y1="184.5" x2="60.5" y2="195.5"/>
		<line fill="none" stroke="#000000" stroke-miterlimit="10" x1="65" y1="184.5" x2="60.5" y2="195.5"/>
	</g>
	<g>
		<line fill="#BE1E2D" x1="60.5" y1="195.5" x2="96.9" y2="181.8"/>
		<line fill="none" stroke="#000000" stroke-miterlimit="10" x1="60.5" y1="195.5" x2="96.9" y2="181.8"/>
	</g>
	<g>
		<line fill="#BE1E2D" x1="104.2" y1="176.6" x2="150" y2="168.8"/>
		<line fill="none" stroke="#000000" stroke-miterlimit="10" x1="104.2" y1="176.6" x2="150" y2="168.8"/>
	</g>
	<g>
		<line fill="#BE1E2D" x1="150" y1="168.8" x2="173.5" y2="125"/>
		<line fill="none" stroke="#000000" stroke-miterlimit="10" x1="150" y1="168.8" x2="173.5" y2="125"/>
	</g>
	<g>
		<line fill="#BE1E2D" x1="173.5" y1="125" x2="146.5" y2="128.5"/>
		<line fill="none" stroke="#000000" stroke-miterlimit="10" x1="173.5" y1="125" x2="146.5" y2="128.5"/>
	</g>
	<g>
		<line fill="#BE1E2D" x1="146.5" y1="128.5" x2="104.9" y2="172.7"/>
		<line fill="none" stroke="#000000" stroke-miterlimit="10" x1="146.5" y1="128.5" x2="104.9" y2="172.7"/>
	</g>
	<g>
		<line fill="#BE1E2D" x1="74.3" y1="157" x2="48.5" y2="150.6"/>
		<line fill="none" stroke="#000000" stroke-miterlimit="10" x1="74.3" y1="157" x2="48.5" y2="150.6"/>
	</g>
	<g>
		<line fill="#BE1E2D" x1="48.5" y1="150.6" x2="32" y2="120"/>
		<line fill="none" stroke="#000000" stroke-miterlimit="10" x1="48.5" y1="150.6" x2="32" y2="120"/>
	</g>
	<g>
		<line fill="#BE1E2D" x1="32" y1="120" x2="85.5" y2="110"/>
		<line fill="none" stroke="#000000" stroke-miterlimit="10" x1="32" y1="120" x2="85.5" y2="110"/>
	</g>
	<g>
		<line fill="#BE1E2D" x1="85.5" y1="110" x2="87.9" y2="139.2"/>
		<line fill="none" stroke="#000000" stroke-miterlimit="10" x1="85.5" y1="110" x2="87.9" y2="139.2"/>
	</g>
	<g>
		<line fill="#BE1E2D" x1="96.9" y1="181.8" x2="101.5" y2="201.5"/>
		<line fill="none" stroke="#000000" stroke-miterlimit="10" x1="96.9" y1="181.8" x2="101.5" y2="201.5"/>
	</g>
	<g>
		<line fill="#BE1E2D" x1="101.5" y1="201.5" x2="125.7" y2="201.5"/>
		<line fill="none" stroke="#000000" stroke-miterlimit="10" x1="101.5" y1="201.5" x2="125.7" y2="201.5"/>
	</g>
	<g>
		<line fill="#BE1E2D" x1="103" y1="179.2" x2="122" y2="181.8"/>
		<line fill="none" stroke="#000000" stroke-miterlimit="10" x1="103" y1="179.2" x2="122" y2="181.8"/>
	</g>
	<g>
		<line fill="#BE1E2D" x1="122" y1="181.8" x2="125.7" y2="201.5"/>
		<line fill="none" stroke="#000000" stroke-miterlimit="10" x1="122" y1="181.8" x2="125.7" y2="201.5"/>
	</g>
	<g>
		<line fill="#BE1E2D" x1="133" y1="172.7" x2="157.5" y2="181.8"/>
		<line fill="none" stroke="#000000" stroke-miterlimit="10" x1="133" y1="172.7" x2="157.5" y2="181.8"/>
	</g>
	<g>
		<line fill="#BE1E2D" x1="157.5" y1="181.8" x2="122" y2="188.7"/>
		<line fill="none" stroke="#000000" stroke-miterlimit="10" x1="157.5" y1="181.8" x2="122" y2="188.7"/>
	</g>
	<g>
		<line fill="#BE1E2D" x1="67.5" y1="155.3" x2="45" y2="165.5"/>
		<line fill="none" stroke="#000000" stroke-miterlimit="10" x1="67.5" y1="155.3" x2="45" y2="165.5"/>
	</g>
	<g>
		<line fill="#BE1E2D" x1="45" y1="165.5" x2="61.4" y2="172.7"/>
		<line fill="none" stroke="#000000" stroke-miterlimit="10" x1="45" y1="165.5" x2="61.4" y2="172.7"/>
	</g>
	<g>
		<line fill="#BE1E2D" x1="61.4" y1="172.7" x2="83" y2="175"/>
		<line fill="none" stroke="#000000" stroke-miterlimit="10" x1="61.4" y1="172.7" x2="83" y2="175"/>
	</g>
	<g>
		<line fill="#BE1E2D" x1="87.9" y1="139.2" x2="94.5" y2="115"/>
		<line fill="none" stroke="#000000" stroke-miterlimit="10" x1="87.9" y1="139.2" x2="94.5" y2="115"/>
	</g>
	<g>
		<line fill="#BE1E2D" x1="94.5" y1="115" x2="127.1" y2="139.2"/>
		<line fill="none" stroke="#000000" stroke-miterlimit="10" x1="94.5" y1="115" x2="127.1" y2="139.2"/>
	</g>
	<g>
		<line fill="#BE1E2D" x1="127.1" y1="139.2" x2="127.1" y2="149.1"/>
		<line fill="none" stroke="#000000" stroke-miterlimit="10" x1="127.1" y1="139.2" x2="127.1" y2="149.1"/>
	</g>
	<g>
		<line fill="#BE1E2D" x1="122" y1="135.3" x2="130.5" y2="115"/>
		<line fill="none" stroke="#000000" stroke-miterlimit="10" x1="122" y1="135.3" x2="130.5" y2="115"/>
	</g>
	<g>
		<line fill="#BE1E2D" x1="130.5" y1="115" x2="169" y2="93"/>
		<line fill="none" stroke="#000000" stroke-miterlimit="10" x1="130.5" y1="115" x2="169" y2="93"/>
	</g>
	<g>
		<line fill="#BE1E2D" x1="169" y1="93" x2="173.5" y2="115"/>
		<line fill="none" stroke="#000000" stroke-miterlimit="10" x1="169" y1="93" x2="173.5" y2="115"/>
	</g>
	<g>
		<line fill="#BE1E2D" x1="173.5" y1="115" x2="161.8" y2="127.1"/>
		<line fill="none" stroke="#000000" stroke-miterlimit="10" x1="173.5" y1="115" x2="161.8" y2="127.1"/>
	</g>
	<g>
		<line fill="#BE1E2D" x1="167.6" y1="121" x2="190" y2="132"/>
		<line fill="none" stroke="#000000" stroke-miterlimit="10" x1="167.6" y1="121" x2="190" y2="132"/>
	</g>
	<g>
		<line fill="#BE1E2D" x1="190" y1="132" x2="167.6" y2="150.6"/>
		<line fill="none" stroke="#000000" stroke-miterlimit="10" x1="190" y1="132" x2="167.6" y2="150.6"/>
	</g>
	<g>
		<line fill="#BE1E2D" x1="167.6" y1="150.6" x2="160" y2="150.6"/>
		<line fill="none" stroke="#000000" stroke-miterlimit="10" x1="167.6" y1="150.6" x2="160" y2="150.6"/>
	</g>
	<g>
		<line fill="#BE1E2D" x1="172.1" y1="146.9" x2="176.5" y2="150.6"/>
		<line fill="none" stroke="#000000" stroke-miterlimit="10" x1="172.1" y1="146.9" x2="176.5" y2="150.6"/>
	</g>
	<g>
		<line fill="#BE1E2D" x1="176.5" y1="150.6" x2="157.5" y2="173.9"/>
		<line fill="none" stroke="#000000" stroke-miterlimit="10" x1="176.5" y1="150.6" x2="157.5" y2="173.9"/>
	</g>
	<g>
		<line fill="#BE1E2D" x1="157.5" y1="173.9" x2="145.2" y2="176.6"/>
		<line fill="none" stroke="#000000" stroke-miterlimit="10" x1="157.5" y1="173.9" x2="145.2" y2="176.6"/>
	</g>
	<g>
		<line fill="#BE1E2D" x1="61.4" y1="104" x2="67.5" y2="113.4"/>
		<line fill="none" stroke="#000000" stroke-miterlimit="10" x1="61.4" y1="104" x2="67.5" y2="113.4"/>
	</g>
	<g>
		<path fill="#BE1E2D" d="M145.2,93L79.5,67.7c-1-0.4-2.2,0.1-2.7,1.1l-14.6,33.3c-0.4,1-0.4,1,0,0L77.6,67"/>
		<path fill="none" stroke="#000000" stroke-miterlimit="10" d="M145.2,93L79.5,67.7c-1-0.4-2.2,0.1-2.7,1.1l-14.6,33.3
			c-0.4,1-0.4,1,0,0L77.6,67"/>
	</g>
	<g>
		<path fill="#BE1E2D" d="M145.2,93l1.2,12.9L145.2,93z"/>
		<path fill="none" stroke="#000000" stroke-miterlimit="10" d="M145.2,93l1.2,12.9L145.2,93z"/>
	</g>
	<g>
		<line fill="#BE1E2D" x1="130.5" y1="87.3" x2="151.4" y2="80"/>
		<line fill="none" stroke="#000000" stroke-miterlimit="10" x1="130.5" y1="87.3" x2="151.4" y2="80"/>
	</g>
	<g>
		<line fill="#BE1E2D" x1="151.4" y1="80" x2="160" y2="98.1"/>
		<line fill="none" stroke="#000000" stroke-miterlimit="10" x1="151.4" y1="80" x2="160" y2="98.1"/>
	</g>
	<g>
		<path fill="#BE1E2D" d="M96.9,93l-12.6,15.5c-0.7,0.9-0.7,0.9,0,0l11.4-13.9c0.7-0.9,2.1-1.3,3.2-1.1l23.2,5.9"/>
		<path fill="none" stroke="#000000" stroke-miterlimit="10" d="M96.9,93l-12.6,15.5c-0.7,0.9-0.7,0.9,0,0l11.4-13.9
			c0.7-0.9,2.1-1.3,3.2-1.1l23.2,5.9"/>
	</g>
	<g>
		<path fill="#BE1E2D" d="M136.2,111.8L122,99.4L136.2,111.8z"/>
		<path fill="none" stroke="#000000" stroke-miterlimit="10" d="M136.2,111.8L122,99.4L136.2,111.8z"/>
	</g>
	<g>
		<line fill="#BE1E2D" x1="101.5" y1="104" x2="113.6" y2="104"/>
		<line fill="none" stroke="#000000" stroke-miterlimit="10" x1="101.5" y1="104" x2="113.6" y2="104"/>
	</g>
	<g>
		<line fill="#BE1E2D" x1="113.6" y1="104" x2="109.5" y2="113.4"/>
		<line fill="none" stroke="#000000" stroke-miterlimit="10" x1="113.6" y1="104" x2="109.5" y2="113.4"/>
	</g>
	<g>
		<line fill="#BE1E2D" x1="109.5" y1="113.4" x2="103" y2="110"/>
		<line fill="none" stroke="#000000" stroke-miterlimit="10" x1="109.5" y1="113.4" x2="103" y2="110"/>
	</g>
	<g>
		<line fill="#BE1E2D" x1="103" y1="110" x2="103" y2="120"/>
		<line fill="none" stroke="#000000" stroke-miterlimit="10" x1="103" y1="110" x2="103" y2="120"/>
	</g>
	<g>
		<line fill="#BE1E2D" x1="109.5" y1="113.4" x2="117.5" y2="125"/>
		<line fill="none" stroke="#000000" stroke-miterlimit="10" x1="109.5" y1="113.4" x2="117.5" y2="125"/>
	</g>
	<g>
		<line fill="#BE1E2D" x1="117.5" y1="125" x2="113.6" y2="129.2"/>
		<line fill="none" stroke="#000000" stroke-miterlimit="10" x1="117.5" y1="125" x2="113.6" y2="129.2"/>
	</g>
	<g>
		<line fill="#BE1E2D" x1="113.6" y1="104" x2="117.5" y2="115"/>
		<line fill="none" stroke="#000000" stroke-miterlimit="10" x1="113.6" y1="104" x2="117.5" y2="115"/>
	</g>
	<g>
		<line fill="#BE1E2D" x1="117.5" y1="115" x2="126.2" y2="109.5"/>
		<line fill="none" stroke="#000000" stroke-miterlimit="10" x1="117.5" y1="115" x2="126.2" y2="109.5"/>
	</g>
	<g>
		<line fill="#BE1E2D" x1="126.2" y1="109.5" x2="122" y2="124.6"/>
		<line fill="none" stroke="#000000" stroke-miterlimit="10" x1="126.2" y1="109.5" x2="122" y2="124.6"/>
	</g>
	<g>
		<line fill="#BE1E2D" x1="117.5" y1="115" x2="117.5" y2="125"/>
		<line fill="none" stroke="#000000" stroke-miterlimit="10" x1="117.5" y1="115" x2="117.5" y2="125"/>
	</g>
	<g>
		<line fill="#BE1E2D" x1="122" y1="124.6" x2="122" y2="135.3"/>
		<line fill="none" stroke="#000000" stroke-miterlimit="10" x1="122" y1="124.6" x2="122" y2="135.3"/>
	</g>
	<g>
		<line fill="#BE1E2D" x1="101.5" y1="104" x2="96.9" y2="116.8"/>
		<line fill="none" stroke="#000000" stroke-miterlimit="10" x1="101.5" y1="104" x2="96.9" y2="116.8"/>
	</g>
	<g>
		<line fill="#BE1E2D" x1="103" y1="110" x2="107.6" y2="105.6"/>
		<line fill="none" stroke="#000000" stroke-miterlimit="10" x1="103" y1="110" x2="107.6" y2="105.6"/>
	</g>
	<g>
		<line fill="#BE1E2D" x1="107.6" y1="105.6" x2="109.5" y2="113.4"/>
		<line fill="none" stroke="#000000" stroke-miterlimit="10" x1="107.6" y1="105.6" x2="109.5" y2="113.4"/>
	</g>
	<g>
		<line fill="#BE1E2D" x1="67.5" y1="90" x2="53.2" y2="87.3"/>
		<line fill="none" stroke="#000000" stroke-miterlimit="10" x1="67.5" y1="90" x2="53.2" y2="87.3"/>
	</g>
	<g>
		<line fill="#BE1E2D" x1="53.2" y1="87.3" x2="53.2" y2="110.4"/>
		<line fill="none" stroke="#000000" stroke-miterlimit="10" x1="53.2" y1="87.3" x2="53.2" y2="110.4"/>
	</g>
	<g>
		<line fill="#BE1E2D" x1="53.2" y1="110.4" x2="61.4" y2="115"/>
		<line fill="none" stroke="#000000" stroke-miterlimit="10" x1="53.2" y1="110.4" x2="61.4" y2="115"/>
	</g>
	<g>
		<line fill="#BE1E2D" x1="83" y1="175" x2="78.7" y2="177.3"/>
		<line fill="none" stroke="#000000" stroke-miterlimit="10" x1="83" y1="175" x2="78.7" y2="177.3"/>
	</g>
	<g>
		<line fill="#BE1E2D" x1="78.7" y1="177.3" x2="83" y2="180.5"/>
		<line fill="none" stroke="#000000" stroke-miterlimit="10" x1="78.7" y1="177.3" x2="83" y2="180.5"/>
	</g>
	<g>
		<line fill="#BE1E2D" x1="91.2" y1="185.3" x2="87.9" y2="195.5"/>
		<line fill="none" stroke="#000000" stroke-miterlimit="10" x1="91.2" y1="185.3" x2="87.9" y2="195.5"/>
	</g>
	<g>
		<line fill="#BE1E2D" x1="87.9" y1="195.5" x2="90" y2="204"/>
		<line fill="none" stroke="#000000" stroke-miterlimit="10" x1="87.9" y1="195.5" x2="90" y2="204"/>
	</g>
	<g>
		<line fill="#BE1E2D" x1="90" y1="204" x2="92.3" y2="195.5"/>
		<line fill="none" stroke="#000000" stroke-miterlimit="10" x1="90" y1="204" x2="92.3" y2="195.5"/>
	</g>
	<g>
		<line fill="#BE1E2D" x1="92.3" y1="195.5" x2="98.5" y2="188.7"/>
		<line fill="none" stroke="#000000" stroke-miterlimit="10" x1="92.3" y1="195.5" x2="98.5" y2="188.7"/>
	</g>
	<g>
		<line fill="#BE1E2D" x1="92.3" y1="195.5" x2="78.7" y2="243.5"/>
		<line fill="none" stroke="#000000" stroke-miterlimit="10" x1="92.3" y1="195.5" x2="78.7" y2="243.5"/>
	</g>
	<g>
		<line fill="#BE1E2D" x1="98.5" y1="188.7" x2="80.9" y2="243.5"/>
		<line fill="none" stroke="#000000" stroke-miterlimit="10" x1="98.5" y1="188.7" x2="80.9" y2="243.5"/>
	</g>
	<g>
		<line fill="#BE1E2D" x1="80.9" y1="243.5" x2="65" y2="265"/>
		<line fill="none" stroke="#000000" stroke-miterlimit="10" x1="80.9" y1="243.5" x2="65" y2="265"/>
	</g>
	<g>
		<line fill="#BE1E2D" x1="78.7" y1="241" x2="58.8" y2="265"/>
		<line fill="none" stroke="#000000" stroke-miterlimit="10" x1="78.7" y1="241" x2="58.8" y2="265"/>
	</g>
	<g>
		<line fill="#BE1E2D" x1="58.8" y1="265" x2="48.5" y2="293.5"/>
		<line fill="none" stroke="#000000" stroke-miterlimit="10" x1="58.8" y1="265" x2="48.5" y2="293.5"/>
	</g>
	<g>
		<line fill="#BE1E2D" x1="65" y1="265" x2="48.5" y2="293.5"/>
		<line fill="none" stroke="#000000" stroke-miterlimit="10" x1="65" y1="265" x2="48.5" y2="293.5"/>
	</g>
	<g>
		<line fill="#BE1E2D" x1="78.7" y1="243.9" x2="80.8" y2="243.1"/>
		<line fill="none" stroke="#000000" stroke-miterlimit="10" x1="78.7" y1="243.9" x2="80.8" y2="243.1"/>
	</g>
	<g>
		<line fill="#BE1E2D" x1="58.8" y1="265" x2="62.8" y2="268.9"/>
		<line fill="none" stroke="#000000" stroke-miterlimit="10" x1="58.8" y1="265" x2="62.8" y2="268.9"/>
	</g>
</g>
<g id="Layer_2">
</g>
</svg>
