<?xml version="1.0" encoding="utf-8"?>
<!-- Generator: Adobe Illustrator 18.0.0, SVG Export Plug-In . SVG Version: 6.00 Build 0)  -->
<!DOCTYPE svg PUBLIC "-//W3C//DTD SVG 1.1//EN" "http://www.w3.org/Graphics/SVG/1.1/DTD/svg11.dtd">
<svg version="1.1" id="Layer_1" xmlns="http://www.w3.org/2000/svg" xmlns:xlink="http://www.w3.org/1999/xlink" x="0px" y="0px"
	 viewBox="0 0 612 792" enable-background="new 0 0 612 792" xml:space="preserve">
<g>
	<line fill="#EF4136" x1="237.1" y1="217.5" x2="233.8" y2="261.3"/>
	<line fill="none" stroke="#000000" stroke-miterlimit="10" x1="237.1" y1="217.5" x2="233.8" y2="261.3"/>
</g>
<g>
	<line fill="#EF4136" x1="233.8" y1="261.3" x2="261" y2="277"/>
	<line fill="none" stroke="#000000" stroke-miterlimit="10" x1="233.8" y1="261.3" x2="261" y2="277"/>
</g>
<g>
	<line fill="#EF4136" x1="237.1" y1="217.5" x2="266.5" y2="258"/>
	<line fill="none" stroke="#000000" stroke-miterlimit="10" x1="237.1" y1="217.5" x2="266.5" y2="258"/>
</g>
<g>
	<line fill="#EF4136" x1="266.5" y1="258" x2="261" y2="277"/>
	<line fill="none" stroke="#000000" stroke-miterlimit="10" x1="266.5" y1="258" x2="261" y2="277"/>
</g>
<g>
	<line fill="#EF4136" x1="251.8" y1="271.7" x2="224.5" y2="277"/>
	<line fill="none" stroke="#000000" stroke-miterlimit="10" x1="251.8" y1="271.7" x2="224.5" y2="277"/>
</g>
<g>
	<line fill="#EF4136" x1="224.5" y1="277" x2="220" y2="288"/>
	<line fill="none" stroke="#000000" stroke-miterlimit="10" x1="224.5" y1="277" x2="220" y2="288"/>
</g>
<g>
	<line fill="#EF4136" x1="220" y1="288" x2="256.4" y2="274.3"/>
	<line fill="none" stroke="#000000" stroke-miterlimit="10" x1="220" y1="288" x2="256.4" y2="274.3"/>
</g>
<g>
	<line fill="#EF4136" x1="263.8" y1="269.1" x2="309.5" y2="261.3"/>
	<line fill="none" stroke="#000000" stroke-miterlimit="10" x1="263.8" y1="269.1" x2="309.5" y2="261.3"/>
</g>
<g>
	<line fill="#EF4136" x1="309.5" y1="261.3" x2="333" y2="217.5"/>
	<line fill="none" stroke="#000000" stroke-miterlimit="10" x1="309.5" y1="261.3" x2="333" y2="217.5"/>
</g>
<g>
	<line fill="#EF4136" x1="333" y1="217.5" x2="306" y2="221"/>
	<line fill="none" stroke="#000000" stroke-miterlimit="10" x1="333" y1="217.5" x2="306" y2="221"/>
</g>
<g>
	<line fill="#EF4136" x1="306" y1="221" x2="264.4" y2="265.2"/>
	<line fill="none" stroke="#000000" stroke-miterlimit="10" x1="306" y1="221" x2="264.4" y2="265.2"/>
</g>
<g>
	<line fill="#EF4136" x1="233.8" y1="249.5" x2="208" y2="243.1"/>
	<line fill="none" stroke="#000000" stroke-miterlimit="10" x1="233.8" y1="249.5" x2="208" y2="243.1"/>
</g>
<g>
	<line fill="#EF4136" x1="208" y1="243.1" x2="191.5" y2="212.5"/>
	<line fill="none" stroke="#000000" stroke-miterlimit="10" x1="208" y1="243.1" x2="191.5" y2="212.5"/>
</g>
<g>
	<line fill="#EF4136" x1="191.5" y1="212.5" x2="245" y2="202.5"/>
	<line fill="none" stroke="#000000" stroke-miterlimit="10" x1="191.5" y1="212.5" x2="245" y2="202.5"/>
</g>
<g>
	<line fill="#EF4136" x1="245" y1="202.5" x2="247.4" y2="231.7"/>
	<line fill="none" stroke="#000000" stroke-miterlimit="10" x1="245" y1="202.5" x2="247.4" y2="231.7"/>
</g>
<g>
	<line fill="#EF4136" x1="256.4" y1="274.3" x2="261" y2="294"/>
	<line fill="none" stroke="#000000" stroke-miterlimit="10" x1="256.4" y1="274.3" x2="261" y2="294"/>
</g>
<g>
	<line fill="#EF4136" x1="261" y1="294" x2="285.2" y2="294"/>
	<line fill="none" stroke="#000000" stroke-miterlimit="10" x1="261" y1="294" x2="285.2" y2="294"/>
</g>
<g>
	<line fill="#EF4136" x1="262.5" y1="271.7" x2="281.5" y2="274.3"/>
	<line fill="none" stroke="#000000" stroke-miterlimit="10" x1="262.5" y1="271.7" x2="281.5" y2="274.3"/>
</g>
<g>
	<line fill="#EF4136" x1="281.5" y1="274.3" x2="285.2" y2="294"/>
	<line fill="none" stroke="#000000" stroke-miterlimit="10" x1="281.5" y1="274.3" x2="285.2" y2="294"/>
</g>
<g>
	<line fill="#EF4136" x1="292.5" y1="265.2" x2="317" y2="274.3"/>
	<line fill="none" stroke="#000000" stroke-miterlimit="10" x1="292.5" y1="265.2" x2="317" y2="274.3"/>
</g>
<g>
	<line fill="#EF4136" x1="317" y1="274.3" x2="281.5" y2="281.2"/>
	<line fill="none" stroke="#000000" stroke-miterlimit="10" x1="317" y1="274.3" x2="281.5" y2="281.2"/>
</g>
<g>
	<line fill="#EF4136" x1="227" y1="247.8" x2="204.5" y2="258"/>
	<line fill="none" stroke="#000000" stroke-miterlimit="10" x1="227" y1="247.8" x2="204.5" y2="258"/>
</g>
<g>
	<line fill="#EF4136" x1="204.5" y1="258" x2="220.9" y2="265.2"/>
	<line fill="none" stroke="#000000" stroke-miterlimit="10" x1="204.5" y1="258" x2="220.9" y2="265.2"/>
</g>
<g>
	<line fill="#EF4136" x1="220.9" y1="265.2" x2="242.5" y2="267.5"/>
	<line fill="none" stroke="#000000" stroke-miterlimit="10" x1="220.9" y1="265.2" x2="242.5" y2="267.5"/>
</g>
<g>
	<line fill="#EF4136" x1="247.4" y1="231.7" x2="254" y2="207.5"/>
	<line fill="none" stroke="#000000" stroke-miterlimit="10" x1="247.4" y1="231.7" x2="254" y2="207.5"/>
</g>
<g>
	<line fill="#EF4136" x1="254" y1="207.5" x2="286.6" y2="231.7"/>
	<line fill="none" stroke="#000000" stroke-miterlimit="10" x1="254" y1="207.5" x2="286.6" y2="231.7"/>
</g>
<g>
	<line fill="#EF4136" x1="286.6" y1="231.7" x2="286.6" y2="241.6"/>
	<line fill="none" stroke="#000000" stroke-miterlimit="10" x1="286.6" y1="231.7" x2="286.6" y2="241.6"/>
</g>
<g>
	<line fill="#EF4136" x1="281.5" y1="227.8" x2="290" y2="207.5"/>
	<line fill="none" stroke="#000000" stroke-miterlimit="10" x1="281.5" y1="227.8" x2="290" y2="207.5"/>
</g>
<g>
	<line fill="#EF4136" x1="290" y1="207.5" x2="328.5" y2="185.5"/>
	<line fill="none" stroke="#000000" stroke-miterlimit="10" x1="290" y1="207.5" x2="328.5" y2="185.5"/>
</g>
<g>
	<line fill="#EF4136" x1="328.5" y1="185.5" x2="333" y2="207.5"/>
	<line fill="none" stroke="#000000" stroke-miterlimit="10" x1="328.5" y1="185.5" x2="333" y2="207.5"/>
</g>
<g>
	<line fill="#EF4136" x1="333" y1="207.5" x2="321.2" y2="219.6"/>
	<line fill="none" stroke="#000000" stroke-miterlimit="10" x1="333" y1="207.5" x2="321.2" y2="219.6"/>
</g>
<g>
	<line fill="#EF4136" x1="327.1" y1="213.5" x2="349.5" y2="224.5"/>
	<line fill="none" stroke="#000000" stroke-miterlimit="10" x1="327.1" y1="213.5" x2="349.5" y2="224.5"/>
</g>
<g>
	<line fill="#EF4136" x1="349.5" y1="224.5" x2="327.1" y2="243.1"/>
	<line fill="none" stroke="#000000" stroke-miterlimit="10" x1="349.5" y1="224.5" x2="327.1" y2="243.1"/>
</g>
<g>
	<line fill="#EF4136" x1="327.1" y1="243.1" x2="319.5" y2="243.1"/>
	<line fill="none" stroke="#000000" stroke-miterlimit="10" x1="327.1" y1="243.1" x2="319.5" y2="243.1"/>
</g>
<g>
	<line fill="#EF4136" x1="331.6" y1="239.4" x2="336" y2="243.1"/>
	<line fill="none" stroke="#000000" stroke-miterlimit="10" x1="331.6" y1="239.4" x2="336" y2="243.1"/>
</g>
<g>
	<line fill="#EF4136" x1="336" y1="243.1" x2="317" y2="266.4"/>
	<line fill="none" stroke="#000000" stroke-miterlimit="10" x1="336" y1="243.1" x2="317" y2="266.4"/>
</g>
<g>
	<line fill="#EF4136" x1="317" y1="266.4" x2="304.8" y2="269.1"/>
	<line fill="none" stroke="#000000" stroke-miterlimit="10" x1="317" y1="266.4" x2="304.8" y2="269.1"/>
</g>
<g>
	<line fill="#EF4136" x1="220.9" y1="196.5" x2="227" y2="205.9"/>
	<line fill="none" stroke="#000000" stroke-miterlimit="10" x1="220.9" y1="196.5" x2="227" y2="205.9"/>
</g>
<g>
	<line fill="#EF4136" x1="220.9" y1="196.5" x2="237.1" y2="159.5"/>
	<line fill="none" stroke="#000000" stroke-miterlimit="10" x1="220.9" y1="196.5" x2="237.1" y2="159.5"/>
</g>
<g>
	<line fill="#EF4136" x1="237.1" y1="159.5" x2="304.8" y2="185.5"/>
	<line fill="none" stroke="#000000" stroke-miterlimit="10" x1="237.1" y1="159.5" x2="304.8" y2="185.5"/>
</g>
<g>
	<line fill="#EF4136" x1="304.8" y1="185.5" x2="306" y2="198.4"/>
	<line fill="none" stroke="#000000" stroke-miterlimit="10" x1="304.8" y1="185.5" x2="306" y2="198.4"/>
</g>
<g>
	<line fill="#EF4136" x1="290" y1="179.8" x2="310.9" y2="172.5"/>
	<line fill="none" stroke="#000000" stroke-miterlimit="10" x1="290" y1="179.8" x2="310.9" y2="172.5"/>
</g>
<g>
	<line fill="#EF4136" x1="310.9" y1="172.5" x2="319.5" y2="190.6"/>
	<line fill="none" stroke="#000000" stroke-miterlimit="10" x1="310.9" y1="172.5" x2="319.5" y2="190.6"/>
</g>
<g>
	<line fill="#EF4136" x1="242.5" y1="202.5" x2="256.4" y2="185.5"/>
	<line fill="none" stroke="#000000" stroke-miterlimit="10" x1="242.5" y1="202.5" x2="256.4" y2="185.5"/>
</g>
<g>
	<line fill="#EF4136" x1="256.4" y1="185.5" x2="281.5" y2="191.9"/>
	<line fill="none" stroke="#000000" stroke-miterlimit="10" x1="256.4" y1="185.5" x2="281.5" y2="191.9"/>
</g>
<g>
	<line fill="#EF4136" x1="281.5" y1="191.9" x2="295.7" y2="204.3"/>
	<line fill="none" stroke="#000000" stroke-miterlimit="10" x1="281.5" y1="191.9" x2="295.7" y2="204.3"/>
</g>
<g>
	<line fill="#EF4136" x1="261" y1="196.5" x2="273.1" y2="196.5"/>
	<line fill="none" stroke="#000000" stroke-miterlimit="10" x1="261" y1="196.5" x2="273.1" y2="196.5"/>
</g>
<g>
	<line fill="#EF4136" x1="273.1" y1="196.5" x2="269" y2="205.9"/>
	<line fill="none" stroke="#000000" stroke-miterlimit="10" x1="273.1" y1="196.5" x2="269" y2="205.9"/>
</g>
<g>
	<line fill="#EF4136" x1="269" y1="205.9" x2="262.5" y2="202.5"/>
	<line fill="none" stroke="#000000" stroke-miterlimit="10" x1="269" y1="205.9" x2="262.5" y2="202.5"/>
</g>
<g>
	<line fill="#EF4136" x1="262.5" y1="202.5" x2="262.5" y2="212.5"/>
	<line fill="none" stroke="#000000" stroke-miterlimit="10" x1="262.5" y1="202.5" x2="262.5" y2="212.5"/>
</g>
<g>
	<line fill="#EF4136" x1="269" y1="205.9" x2="277" y2="217.5"/>
	<line fill="none" stroke="#000000" stroke-miterlimit="10" x1="269" y1="205.9" x2="277" y2="217.5"/>
</g>
<g>
	<line fill="#EF4136" x1="277" y1="217.5" x2="273.1" y2="221.7"/>
	<line fill="none" stroke="#000000" stroke-miterlimit="10" x1="277" y1="217.5" x2="273.1" y2="221.7"/>
</g>
<g>
	<line fill="#EF4136" x1="273.1" y1="196.5" x2="277" y2="207.5"/>
	<line fill="none" stroke="#000000" stroke-miterlimit="10" x1="273.1" y1="196.5" x2="277" y2="207.5"/>
</g>
<g>
	<line fill="#EF4136" x1="277" y1="207.5" x2="285.8" y2="202"/>
	<line fill="none" stroke="#000000" stroke-miterlimit="10" x1="277" y1="207.5" x2="285.8" y2="202"/>
</g>
<g>
	<line fill="#EF4136" x1="285.8" y1="202" x2="281.5" y2="217.1"/>
	<line fill="none" stroke="#000000" stroke-miterlimit="10" x1="285.8" y1="202" x2="281.5" y2="217.1"/>
</g>
<g>
	<line fill="#EF4136" x1="277" y1="207.5" x2="277" y2="217.5"/>
	<line fill="none" stroke="#000000" stroke-miterlimit="10" x1="277" y1="207.5" x2="277" y2="217.5"/>
</g>
<g>
	<line fill="#EF4136" x1="281.5" y1="217.1" x2="281.5" y2="227.8"/>
	<line fill="none" stroke="#000000" stroke-miterlimit="10" x1="281.5" y1="217.1" x2="281.5" y2="227.8"/>
</g>
<g>
	<line fill="#EF4136" x1="261" y1="196.5" x2="256.4" y2="209.3"/>
	<line fill="none" stroke="#000000" stroke-miterlimit="10" x1="261" y1="196.5" x2="256.4" y2="209.3"/>
</g>
<g>
	<line fill="#EF4136" x1="262.5" y1="202.5" x2="267.1" y2="198.1"/>
	<line fill="none" stroke="#000000" stroke-miterlimit="10" x1="262.5" y1="202.5" x2="267.1" y2="198.1"/>
</g>
<g>
	<line fill="#EF4136" x1="267.1" y1="198.1" x2="269" y2="205.9"/>
	<line fill="none" stroke="#000000" stroke-miterlimit="10" x1="267.1" y1="198.1" x2="269" y2="205.9"/>
</g>
<g>
	<line fill="#EF4136" x1="227" y1="182.5" x2="212.7" y2="179.8"/>
	<line fill="none" stroke="#000000" stroke-miterlimit="10" x1="227" y1="182.5" x2="212.7" y2="179.8"/>
</g>
<g>
	<line fill="#EF4136" x1="212.7" y1="179.8" x2="212.7" y2="202.9"/>
	<line fill="none" stroke="#000000" stroke-miterlimit="10" x1="212.7" y1="179.8" x2="212.7" y2="202.9"/>
</g>
<g>
	<line fill="#EF4136" x1="212.7" y1="202.9" x2="220.9" y2="207.5"/>
	<line fill="none" stroke="#000000" stroke-miterlimit="10" x1="212.7" y1="202.9" x2="220.9" y2="207.5"/>
</g>
<g>
	<line fill="#EF4136" x1="242.5" y1="267.5" x2="238.2" y2="269.8"/>
	<line fill="none" stroke="#000000" stroke-miterlimit="10" x1="242.5" y1="267.5" x2="238.2" y2="269.8"/>
</g>
<g>
	<line fill="#EF4136" x1="238.2" y1="269.8" x2="242.5" y2="273"/>
	<line fill="none" stroke="#000000" stroke-miterlimit="10" x1="238.2" y1="269.8" x2="242.5" y2="273"/>
</g>
<g>
	<line fill="#EF4136" x1="250.7" y1="277.8" x2="247.4" y2="288"/>
	<line fill="none" stroke="#000000" stroke-miterlimit="10" x1="250.7" y1="277.8" x2="247.4" y2="288"/>
</g>
<g>
	<line fill="#EF4136" x1="247.4" y1="288" x2="249.5" y2="296.5"/>
	<line fill="none" stroke="#000000" stroke-miterlimit="10" x1="247.4" y1="288" x2="249.5" y2="296.5"/>
</g>
<g>
	<line fill="#EF4136" x1="249.5" y1="296.5" x2="251.8" y2="288"/>
	<line fill="none" stroke="#000000" stroke-miterlimit="10" x1="249.5" y1="296.5" x2="251.8" y2="288"/>
</g>
<g>
	<line fill="#EF4136" x1="251.8" y1="288" x2="258" y2="281.2"/>
	<line fill="none" stroke="#000000" stroke-miterlimit="10" x1="251.8" y1="288" x2="258" y2="281.2"/>
</g>
<g>
	<line fill="#EF4136" x1="251.8" y1="288" x2="238.2" y2="336"/>
	<line fill="none" stroke="#000000" stroke-miterlimit="10" x1="251.8" y1="288" x2="238.2" y2="336"/>
</g>
<g>
	<line fill="#EF4136" x1="258" y1="281.2" x2="240.4" y2="336"/>
	<line fill="none" stroke="#000000" stroke-miterlimit="10" x1="258" y1="281.2" x2="240.4" y2="336"/>
</g>
<g>
	<line fill="#EF4136" x1="240.4" y1="336" x2="224.5" y2="357.5"/>
	<line fill="none" stroke="#000000" stroke-miterlimit="10" x1="240.4" y1="336" x2="224.5" y2="357.5"/>
</g>
<g>
	<line fill="#EF4136" x1="238.2" y1="333.5" x2="218.2" y2="357.5"/>
	<line fill="none" stroke="#000000" stroke-miterlimit="10" x1="238.2" y1="333.5" x2="218.2" y2="357.5"/>
</g>
<g>
	<line fill="#EF4136" x1="218.2" y1="357.5" x2="208" y2="386"/>
	<line fill="none" stroke="#000000" stroke-miterlimit="10" x1="218.2" y1="357.5" x2="208" y2="386"/>
</g>
<g>
	<line fill="#EF4136" x1="224.5" y1="357.5" x2="208" y2="386"/>
	<line fill="none" stroke="#000000" stroke-miterlimit="10" x1="224.5" y1="357.5" x2="208" y2="386"/>
</g>
<g>
	<line fill="#EF4136" x1="238.2" y1="336.4" x2="240.3" y2="335.6"/>
	<line fill="none" stroke="#000000" stroke-miterlimit="10" x1="238.2" y1="336.4" x2="240.3" y2="335.6"/>
</g>
<g>
	<line fill="#EF4136" x1="218.2" y1="357.5" x2="222.2" y2="361.4"/>
	<line fill="none" stroke="#000000" stroke-miterlimit="10" x1="218.2" y1="357.5" x2="222.2" y2="361.4"/>
</g>
</svg>
